<?xml version="1.0" encoding="UTF-8" standalone="no"?>
<!-- Generator: Adobe Illustrator 17.0.0, SVG Export Plug-In . SVG Version: 6.00 Build 0)  -->

<svg
   xmlns:dc="http://purl.org/dc/elements/1.1/"
   xmlns:cc="http://creativecommons.org/ns#"
   xmlns:rdf="http://www.w3.org/1999/02/22-rdf-syntax-ns#"
   xmlns:svg="http://www.w3.org/2000/svg"
   xmlns="http://www.w3.org/2000/svg"
   xmlns:sodipodi="http://sodipodi.sourceforge.net/DTD/sodipodi-0.dtd"
   xmlns:inkscape="http://www.inkscape.org/namespaces/inkscape"
   version="1.1"
   id="Layer_1"
   x="0px"
   y="0px"
   width="13"
   height="10"
   viewBox="0 0 13 10"
   enable-background="new 0 0 100 100"
   xml:space="preserve"
   inkscape:version="0.91 r13725"
   sodipodi:docname="fi-photo.svg"><metadata
     id="metadata13"><rdf:RDF><cc:Work
         rdf:about=""><dc:format>image/svg+xml</dc:format><dc:type
           rdf:resource="http://purl.org/dc/dcmitype/StillImage" /><dc:title></dc:title></cc:Work></rdf:RDF></metadata><defs
     id="defs11" /><sodipodi:namedview
     pagecolor="#ffffff"
     bordercolor="#666666"
     borderopacity="1"
     objecttolerance="10"
     gridtolerance="10"
     guidetolerance="10"
     inkscape:pageopacity="0"
     inkscape:pageshadow="2"
     inkscape:window-width="814"
     inkscape:window-height="658"
     id="namedview9"
     showgrid="false"
     inkscape:zoom="26.700352"
     inkscape:cx="7.3514523"
     inkscape:cy="8.3443106"
     inkscape:window-x="0"
     inkscape:window-y="0"
     inkscape:window-maximized="0"
     inkscape:current-layer="Layer_1" /><rect
     style="fill:#ffffff"
     id="rect3341"
     width="10.187132"
     height="8.2770443"
     x="0.82395917"
     y="0.78663832"
     rx="3.4535799"
     ry="0.229506" /><g
     id="g3"
     transform="matrix(0.12932436,0,0,0.12932436,-0.53444961,-1.5509638)"><circle
       cx="68.122002"
       cy="38.584"
       r="10.1"
       id="circle7"
       style="fill:#231f20" /><path
       d="m 93.194,18 c 0,-2.47 -2.002,-4.472 -4.472,-4.472 -0.228,0 -0.447,0.034 -0.667,0.067 l 0,-0.095 -76.805,0 0,0.028 C 8.78,13.528 6.778,15.53 6.778,18 l 0,0.001 0,63.998 0,0.001 0,0.001 0,0.499 0.05,0 c 0.252,2.231 2.123,3.972 4.421,3.972 l 0,0.028 76.805,0 0,-0.095 c 0.219,0.033 0.438,0.067 0.667,0.067 2.299,0 4.17,-1.74 4.422,-3.972 l 0.078,0 0,-64.5 -0.027,0 z m -9.929,58.543 -10.861,0 c -0.038,-0.155 -0.092,-0.304 -0.166,-0.442 l 0.018,-0.01 -22.719,-39.35 -0.009,0.005 c -0.5,-1.027 -1.544,-1.74 -2.764,-1.74 -1.251,0 -2.324,0.749 -2.807,1.821 l -15.119,26.186 -3.702,-6.411 -0.005,0.003 c -0.264,-0.542 -0.814,-0.918 -1.457,-0.918 -0.659,0 -1.224,0.395 -1.479,0.958 l -5.46,9.457 0,-42.617 66.53,0 0,53.058 z"
       id="path5"
       inkscape:connector-curvature="0"
       style="fill:#231f20" /></g></svg>