<?xml version="1.0" encoding="utf-8"?>
<!-- Generator: Adobe Illustrator 16.0.0, SVG Export Plug-In . SVG Version: 6.00 Build 0)  -->
<!DOCTYPE svg PUBLIC "-//W3C//DTD SVG 1.1//EN" "http://www.w3.org/Graphics/SVG/1.1/DTD/svg11.dtd">
<svg version="1.1" id="Ebene_1" xmlns="http://www.w3.org/2000/svg" xmlns:xlink="http://www.w3.org/1999/xlink" x="0px" y="0px"
	 width="88.06px" height="88.06px" viewBox="0 0 88.06 88.06" enable-background="new 0 0 88.06 88.06" xml:space="preserve">
<rect x="-0.627" y="-1.003" fill="#901917" width="88.687" height="89.063"/>
<g>
	<g>
		<path fill="#C6C6C6" d="M31.723,12.818c3.549-0.726,8.711-1.209,13.47-1.209c7.501,0,12.421,1.452,15.809,4.517
			c2.662,2.339,4.275,6.049,4.275,10.324c0,7.098-4.597,11.857-10.244,13.792v0.242c4.114,1.452,6.614,5.323,7.985,10.969
			c1.774,7.582,3.065,12.825,4.114,14.922h-7.259c-0.887-1.533-2.097-6.21-3.549-12.986c-1.613-7.501-4.597-10.324-10.969-10.566
			h-6.614l-0.826,0.007l-6.192,0.083V12.818z M38.741,37.5h7.178c7.501,0,12.26-4.114,12.26-10.324
			c0-7.017-5.082-10.083-12.502-10.083c-3.388,0-5.727,0.323-6.937,0.646V37.5z"/>
	</g>
	<g>
		<path fill="#C6C6C6" d="M31.76,17.859h7.207v36.934c0,14.659-7.207,19.163-16.706,19.163c-2.703,0-5.896-0.573-7.616-1.311
			l0.983-5.814c1.474,0.573,3.603,1.065,6.06,1.065c6.388,0,10.073-2.866,10.073-13.676V17.859z"/>
	</g>
	<line fill="#901917" stroke="#901917" stroke-width="3" stroke-miterlimit="10" x1="31.415" y1="19.145" x2="39.326" y2="19.145"/>
	<line fill="#901917" stroke="#901917" stroke-width="3" stroke-miterlimit="10" x1="40.472" y1="43.904" x2="40.479" y2="36.457"/>
</g>
</svg>
