<?xml version="1.0" encoding="UTF-8" standalone="no"?>
<!-- Generator: Adobe Illustrator 16.0.0, SVG Export Plug-In . SVG Version: 6.00 Build 0)  -->

<svg
   xmlns:dc="http://purl.org/dc/elements/1.1/"
   xmlns:cc="http://creativecommons.org/ns#"
   xmlns:rdf="http://www.w3.org/1999/02/22-rdf-syntax-ns#"
   xmlns:svg="http://www.w3.org/2000/svg"
   xmlns="http://www.w3.org/2000/svg"
   xmlns:sodipodi="http://sodipodi.sourceforge.net/DTD/sodipodi-0.dtd"
   xmlns:inkscape="http://www.inkscape.org/namespaces/inkscape"
   version="1.1"
   id="Ebene_1"
   x="0px"
   y="0px"
   width="512"
   height="512"
   viewBox="0 0 512 512"
   enable-background="new 0 0 342 480"
   xml:space="preserve"
   inkscape:version="0.91 r13725"
   sodipodi:docname="CSS.svg"><metadata
     id="metadata23"><rdf:RDF><cc:Work
         rdf:about=""><dc:format>image/svg+xml</dc:format><dc:type
           rdf:resource="http://purl.org/dc/dcmitype/StillImage" /><dc:title></dc:title></cc:Work></rdf:RDF></metadata><defs
     id="defs21" /><sodipodi:namedview
     pagecolor="#ffffff"
     bordercolor="#666666"
     borderopacity="1"
     objecttolerance="10"
     gridtolerance="10"
     guidetolerance="10"
     inkscape:pageopacity="0"
     inkscape:pageshadow="2"
     inkscape:window-width="970"
     inkscape:window-height="732"
     id="namedview19"
     showgrid="false"
     inkscape:zoom="0.49166667"
     inkscape:cx="171"
     inkscape:cy="240"
     inkscape:window-x="0"
     inkscape:window-y="0"
     inkscape:window-maximized="0"
     inkscape:current-layer="Ebene_1" /><g
     id="_x23_000000ff"
     transform="translate(90,32)"><path
       d="m 68.37,0.96 c 21,-0.26 42,-0.08 63,-0.09 0.05,6.57 0.149,13.14 -0.091,19.71 -14.55,-0.1 -29.09,0 -43.63,0.09 -0.1,9.54 -0.29,19.08 -0.199,28.62 14.6,0.09 29.21,0.23 43.81,0.17 0.17,5.4 0.11,10.82 -0.05,16.23 C 110.27,65.55 89.33,65.61 68.39,65.63 68.44,44.07 68.48,22.52 68.37,0.96 Z"
       id="path4"
       inkscape:connector-curvature="0" /><path
       d="m 138.86,0.89 c 21.261,-0.04 42.521,-0.17 63.79,0.07 -0.08,6.21 -0.02,12.41 -0.02,18.62 -15.47,-0.05 -30.95,0.02 -46.42,0.2 0.02,2.439 0.02,4.88 0,7.32 15.45,0.25 30.89,0.28 46.33,0.37 0.06,12.73 0.029,25.45 0.109,38.17 -21.27,-0.04 -42.54,-0.02 -63.81,0.08 -0.11,-5.14 -0.12,-10.27 0.03,-15.41 14.739,0.04 29.489,0.06 44.229,-0.06 0.09,-3.31 0.13,-6.63 0.12,-9.94 -14.81,0 -29.63,0.05 -44.44,-0.05 0.002,-13.12 0.002,-26.25 0.082,-39.37 z"
       id="path6"
       inkscape:connector-curvature="0" /><path
       d="m 209.77,1 c 21.221,0 42.45,0 63.67,0 0.09,6.24 0.181,12.48 -0.02,18.71 -15.54,-0.01 -31.08,0.08 -46.62,0.11 0.04,2.55 0.1,5.1 0.229,7.65 15.45,-0.07 30.9,0.12 46.341,0.28 0.14,12.67 0.239,25.34 0.06,38.01 -21.27,-0.06 -42.54,-0.06 -63.81,0.04 -0.13,-5.12 -0.17,-10.26 0.05,-15.38 14.71,0.11 29.43,0.09 44.149,-0.05 0.04,-3.32 0.11,-6.64 0.08,-9.95 -14.77,0.14 -29.55,0.06 -44.33,0.01 C 209.57,27.29 209.67,14.14 209.77,1 Z"
       id="path8"
       inkscape:connector-curvature="0" /></g><g
     id="_x23_0170baff"
     transform="translate(90,32)"><path
       d="m 0,92.46 c 113.92,-0.01 227.83,-0.02 341.75,0 -6.271,70.85 -12.44,141.7 -18.971,212.53 -3.88,45.27 -7.88,90.539 -12.1,135.779 -24.31,6.44 -48.38,13.78 -72.68,20.25 -22.32,6.551 -44.82,12.48 -67.15,18.98 l -0.66,0 c -21.25,-6.32 -42.71,-11.88 -63.96,-18.2 C 81.149,455.039 56.29,447.499 31.2,440.769 27.93,406.859 24.98,372.93 22.07,339 16.58,276.311 10.61,213.66 5.33,150.96 3.5,132.09 2.19,113.16 0,94.33 l 0,-1.87 m 171.41,27.95 c -0.24,13.61 0.18,27.23 -0.24,40.83 -39.08,-0.14 -78.17,-0.03 -117.25,0.01 0.67,13.21 2.439,26.33 4.26,39.43 36.36,1.35 72.771,-0.05 109.13,1.04 -31.81,14.27 -64.01,27.71 -95.96,41.68 -2.74,1.22 -5.67,2.14 -8.12,3.92 0.271,14.51 2.61,28.939 3.641,43.42 19.38,-0.07 38.75,-0.381 58.13,-0.41 15.529,-0.08 31.069,0.23 46.6,-0.11 -0.74,23.86 0.23,47.751 -0.5,71.61 -10.45,-1.551 -20.77,-3.88 -31.18,-5.73 -8.21,-1.789 -16.62,-2.72 -24.71,-5.07 -1.15,-11.449 -1.95,-22.939 -2.97,-34.399 -2.341,-0.72 -4.82,-0.649 -7.24,-0.69 -11.74,0.07 -23.49,-0.039 -35.24,0.141 1.15,22.029 3.13,44.029 6.5,65.85 11.58,3.021 23.18,5.98 34.74,9.131 17.71,4.819 35.64,8.83 53.38,13.569 2.11,0.45 4.24,1.229 6.43,1.05 1.181,14.49 0.271,29.07 0.49,43.601 4.09,-0.66 8.11,-1.67 12.06,-2.891 33.58,-9.12 67.12,-18.409 100.681,-27.62 1.67,-13.199 2.449,-26.49 3.77,-39.72 3.49,-40.22 7.01,-80.44 10.67,-120.649 4.29,-46 8,-92.05 12.32,-138.05 -46.472,0.037 -92.932,-0.093 -139.392,0.057 z"
       id="path11"
       inkscape:connector-curvature="0" /></g><g
     id="_x23_29a9dfff"
     transform="translate(90,32)"><path
       d="m 171.41,120.41 c 46.46,-0.15 92.92,-0.02 139.39,-0.06 -4.32,46 -8.03,92.05 -12.32,138.05 -3.66,40.209 -7.18,80.43 -10.67,120.649 -1.32,13.229 -2.1,26.521 -3.77,39.72 -33.561,9.211 -67.101,18.5 -100.681,27.62 -3.949,1.221 -7.97,2.23 -12.06,2.891 -0.22,-14.53 0.69,-29.11 -0.49,-43.601 0.3,-0.06 0.91,-0.18 1.21,-0.24 31.23,-7.84 62.25,-16.469 93.41,-24.59 3.94,-44.199 8.31,-88.38 11.08,-132.67 -26.5,0.141 -53.01,0.061 -79.51,0.17 -3.86,0.021 -7.721,0 -11.561,-0.279 14.261,-7.34 29.261,-13.16 43.9,-19.71 14.05,-6.37 28.27,-12.34 42.37,-18.59 2.72,-1.25 5.62,-2.29 8.01,-4.15 0.94,-3.45 0.89,-7.06 1.26,-10.59 0.811,-11.2 2.25,-22.34 2.79,-33.55 -37.529,-0.3 -75.06,-0.04 -112.6,-0.24 0.422,-13.6 0.002,-27.22 0.242,-40.83 z"
       id="path14"
       inkscape:connector-curvature="0" /><path
       d="m 171.6,290.22 c 18.12,-0.31 36.25,0.181 54.38,0.061 -1.01,18.53 -2.55,37.03 -3.51,55.56 -11.11,3.631 -22.39,6.7 -33.59,10.061 -5.97,1.82 -12.101,3.26 -17.78,5.93 0.73,-23.861 -0.24,-47.752 0.5,-71.612 z"
       id="path16"
       inkscape:connector-curvature="0" /></g><g
     id="_x23_ffffffff"
     transform="translate(0,32)" /></svg>