<?xml version="1.0" encoding="UTF-8" standalone="no"?>
<svg
   xmlns:dc="http://purl.org/dc/elements/1.1/"
   xmlns:cc="http://creativecommons.org/ns#"
   xmlns:rdf="http://www.w3.org/1999/02/22-rdf-syntax-ns#"
   xmlns:svg="http://www.w3.org/2000/svg"
   xmlns="http://www.w3.org/2000/svg"
   xmlns:sodipodi="http://sodipodi.sourceforge.net/DTD/sodipodi-0.dtd"
   xmlns:inkscape="http://www.inkscape.org/namespaces/inkscape"
   width="512"
   height="512"
   viewBox="0 0 512 512"
   version="1.1"
   id="svg2"
   inkscape:version="0.91 r13725"
   sodipodi:docname="git-branch.svg">
  <metadata
     id="metadata15">
    <rdf:RDF>
      <cc:Work
         rdf:about="">
        <dc:format>image/svg+xml</dc:format>
        <dc:type
           rdf:resource="http://purl.org/dc/dcmitype/StillImage" />
        <dc:title>git-branch</dc:title>
      </cc:Work>
    </rdf:RDF>
  </metadata>
  <sodipodi:namedview
     pagecolor="#ffffff"
     bordercolor="#666666"
     borderopacity="1"
     objecttolerance="10"
     gridtolerance="10"
     guidetolerance="10"
     inkscape:pageopacity="0"
     inkscape:pageshadow="2"
     inkscape:window-width="942"
     inkscape:window-height="889"
     id="namedview13"
     showgrid="false"
     inkscape:zoom="0.32593203"
     inkscape:cx="5"
     inkscape:cy="8"
     inkscape:window-x="0"
     inkscape:window-y="0"
     inkscape:window-maximized="0"
     inkscape:current-layer="svg2" />
  <!-- Generator: Sketch 3.8.3 (29802) - http://www.bohemiancoding.com/sketch -->
  <title
     id="title4">git-branch</title>
  <desc
     id="desc6">Created with Sketch.</desc>
  <defs
     id="defs8" />
  <g
     id="Octicons"
     style="fill:none;fill-rule:evenodd;stroke:none;stroke-width:1"
     transform="matrix(33.872761,0,0,33.872761,92.83551,-12.704534)">
    <g
       id="git-branch"
       style="fill:#000000">
      <path
         d="M 10,5 C 10,3.89 9.11,3 8,3 6.89,3 6,3.89 6,5 6,5.73 6.41,6.38 7,6.72 l 0,0.3 C 6.98,7.54 6.77,8 6.37,8.4 5.97,8.8 5.51,9.01 4.99,9.03 4.16,9.05 3.51,9.19 2.99,9.48 l 0,-4.76 C 3.58,4.38 3.99,3.74 3.99,3 3.99,1.89 3.1,1 1.99,1 0.88,1 0,1.89 0,3 0,3.73 0.41,4.38 1,4.72 l 0,6.56 C 0.41,11.63 0,12.27 0,13 0,14.11 0.89,15 2,15 3.11,15 4,14.11 4,13 4,12.47 3.8,12 3.47,11.64 3.56,11.58 3.95,11.23 4.06,11.17 4.31,11.06 4.62,11 5,11 6.05,10.95 6.95,10.55 7.75,9.75 8.55,8.95 8.95,7.77 9,6.73 l -0.02,0 C 9.59,6.37 10,5.73 10,5 l 0,0 z M 2,1.8 C 2.66,1.8 3.2,2.35 3.2,3 3.2,3.65 2.65,4.2 2,4.2 1.35,4.2 0.8,3.65 0.8,3 0.8,2.35 1.35,1.8 2,1.8 l 0,0 z m 0,12.41 c -0.66,0 -1.2,-0.55 -1.2,-1.2 0,-0.65 0.55,-1.2 1.2,-1.2 0.65,0 1.2,0.55 1.2,1.2 0,0.65 -0.55,1.2 -1.2,1.2 l 0,0 z m 6,-8 c -0.66,0 -1.2,-0.55 -1.2,-1.2 0,-0.65 0.55,-1.2 1.2,-1.2 0.65,0 1.2,0.55 1.2,1.2 0,0.65 -0.55,1.2 -1.2,1.2 l 0,0 z"
         id="Shape"
         inkscape:connector-curvature="0" />
    </g>
  </g>
</svg>
