<?xml version="1.0" encoding="UTF-8" standalone="no"?>
<svg
   xmlns:dc="http://purl.org/dc/elements/1.1/"
   xmlns:cc="http://creativecommons.org/ns#"
   xmlns:rdf="http://www.w3.org/1999/02/22-rdf-syntax-ns#"
   xmlns:svg="http://www.w3.org/2000/svg"
   xmlns="http://www.w3.org/2000/svg"
   xmlns:sodipodi="http://sodipodi.sourceforge.net/DTD/sodipodi-0.dtd"
   xmlns:inkscape="http://www.inkscape.org/namespaces/inkscape"
   width="512"
   height="512"
   viewBox="0 0 512 512"
   version="1.1"
   id="svg2"
   inkscape:version="0.91 r13725"
   sodipodi:docname="issue-closed.svg">
  <metadata
     id="metadata15">
    <rdf:RDF>
      <cc:Work
         rdf:about="">
        <dc:format>image/svg+xml</dc:format>
        <dc:type
           rdf:resource="http://purl.org/dc/dcmitype/StillImage" />
        <dc:title>issue-closed</dc:title>
      </cc:Work>
    </rdf:RDF>
  </metadata>
  <sodipodi:namedview
     pagecolor="#ffffff"
     bordercolor="#666666"
     borderopacity="1"
     objecttolerance="10"
     gridtolerance="10"
     guidetolerance="10"
     inkscape:pageopacity="0"
     inkscape:pageshadow="2"
     inkscape:window-width="981"
     inkscape:window-height="750"
     id="namedview13"
     showgrid="false"
     inkscape:zoom="0.4609375"
     inkscape:cx="8"
     inkscape:cy="8"
     inkscape:window-x="0"
     inkscape:window-y="0"
     inkscape:window-maximized="0"
     inkscape:current-layer="svg2" />
  <!-- Generator: Sketch 3.8.3 (29802) - http://www.bohemiancoding.com/sketch -->
  <title
     id="title4">issue-closed</title>
  <desc
     id="desc6">Created with Sketch.</desc>
  <defs
     id="defs8" />
  <g
     id="Octicons"
     style="fill:none;fill-rule:evenodd;stroke:none;stroke-width:1"
     transform="matrix(33.542373,0,0,33.542373,-26.542373,-6.1355919)">
    <g
       id="issue-closed"
       style="fill:#000000">
      <path
         d="m 7,10 2,0 0,2 -2,0 0,-2 0,0 z M 9,4 7,4 7,9 9,9 9,4 9,4 Z m 1.5,1.5 -1,1 L 12,9 16,4.5 15,3.5 12,7 10.5,5.5 l 0,0 z M 8,13.7 C 4.86,13.7 2.3,11.14 2.3,8 2.3,4.86 4.86,2.3 8,2.3 c 1.83,0 3.45,0.88 4.5,2.2 L 13.42,3.58 C 12.14,2 10.19,1 8,1 4.14,1 1,4.14 1,8 c 0,3.86 3.14,7 7,7 3.86,0 7,-3.14 7,-7 L 13.48,9.52 C 12.82,11.93 10.62,13.71 8,13.71 L 8,13.7 Z"
         id="Shape"
         inkscape:connector-curvature="0" />
    </g>
  </g>
</svg>
