<?xml version="1.0" encoding="UTF-8" standalone="no"?>
<svg
   xmlns:dc="http://purl.org/dc/elements/1.1/"
   xmlns:cc="http://creativecommons.org/ns#"
   xmlns:rdf="http://www.w3.org/1999/02/22-rdf-syntax-ns#"
   xmlns:svg="http://www.w3.org/2000/svg"
   xmlns="http://www.w3.org/2000/svg"
   xmlns:sodipodi="http://sodipodi.sourceforge.net/DTD/sodipodi-0.dtd"
   xmlns:inkscape="http://www.inkscape.org/namespaces/inkscape"
   width="512"
   height="512"
   viewBox="0 0 512 512"
   version="1.1"
   id="svg2"
   inkscape:version="0.91 r13725"
   sodipodi:docname="issue-opened.svg">
  <metadata
     id="metadata15">
    <rdf:RDF>
      <cc:Work
         rdf:about="">
        <dc:format>image/svg+xml</dc:format>
        <dc:type
           rdf:resource="http://purl.org/dc/dcmitype/StillImage" />
        <dc:title>issue-opened</dc:title>
      </cc:Work>
    </rdf:RDF>
  </metadata>
  <sodipodi:namedview
     pagecolor="#ffffff"
     bordercolor="#666666"
     borderopacity="1"
     objecttolerance="10"
     gridtolerance="10"
     guidetolerance="10"
     inkscape:pageopacity="0"
     inkscape:pageshadow="2"
     inkscape:window-width="1358"
     inkscape:window-height="875"
     id="namedview13"
     showgrid="false"
     inkscape:zoom="0.4609375"
     inkscape:cx="34.35514"
     inkscape:cy="107.11051"
     inkscape:window-x="0"
     inkscape:window-y="0"
     inkscape:window-maximized="0"
     inkscape:current-layer="svg2" />
  <!-- Generator: Sketch 3.8.3 (29802) - http://www.bohemiancoding.com/sketch -->
  <title
     id="title4">issue-opened</title>
  <desc
     id="desc6">Created with Sketch.</desc>
  <defs
     id="defs8" />
  <g
     id="Octicons"
     style="fill:none;fill-rule:evenodd;stroke:none;stroke-width:1"
     transform="matrix(35.692494,0,0,35.692494,6.4745717,-24.522994)">
    <g
       id="issue-opened"
       style="fill:#000000">
      <path
         d="m 7,2.3 c 3.14,0 5.7,2.56 5.7,5.7 0,3.14 -2.56,5.7 -5.7,5.7 C 3.86,13.7 1.3,11.14 1.3,8 1.3,4.86 3.86,2.3 7,2.3 l 0,0 z M 7,1 C 3.14,1 0,4.14 0,8 c 0,3.86 3.14,7 7,7 3.86,0 7,-3.14 7,-7 C 14,4.14 10.86,1 7,1 L 7,1 Z M 8,4 6,4 6,9 8,9 8,4 8,4 Z m 0,6 -2,0 0,2 2,0 0,-2 0,0 z"
         id="Shape"
         inkscape:connector-curvature="0" />
    </g>
  </g>
</svg>
