<?xml version="1.0" encoding="UTF-8" standalone="no"?>
<svg
   xmlns:dc="http://purl.org/dc/elements/1.1/"
   xmlns:cc="http://creativecommons.org/ns#"
   xmlns:rdf="http://www.w3.org/1999/02/22-rdf-syntax-ns#"
   xmlns:svg="http://www.w3.org/2000/svg"
   xmlns="http://www.w3.org/2000/svg"
   xmlns:sodipodi="http://sodipodi.sourceforge.net/DTD/sodipodi-0.dtd"
   xmlns:inkscape="http://www.inkscape.org/namespaces/inkscape"
   width="512"
   height="512"
   viewBox="0 0 512 512"
   version="1.1"
   id="svg32"
   inkscape:version="0.91 r13725"
   sodipodi:docname="light-bulb.svg">
  <metadata
     id="metadata45">
    <rdf:RDF>
      <cc:Work
         rdf:about="">
        <dc:format>image/svg+xml</dc:format>
        <dc:type
           rdf:resource="http://purl.org/dc/dcmitype/StillImage" />
        <dc:title>light-bulb</dc:title>
      </cc:Work>
    </rdf:RDF>
  </metadata>
  <sodipodi:namedview
     pagecolor="#ffffff"
     bordercolor="#666666"
     borderopacity="1"
     objecttolerance="10"
     gridtolerance="10"
     guidetolerance="10"
     inkscape:pageopacity="0"
     inkscape:pageshadow="2"
     inkscape:window-width="1170"
     inkscape:window-height="827"
     id="namedview43"
     showgrid="false"
     inkscape:zoom="0.921875"
     inkscape:cx="6"
     inkscape:cy="289.11371"
     inkscape:window-x="0"
     inkscape:window-y="0"
     inkscape:window-maximized="0"
     inkscape:current-layer="svg32" />
  <!-- Generator: Sketch 3.8.3 (29802) - http://www.bohemiancoding.com/sketch -->
  <title
     id="title34">light-bulb</title>
  <desc
     id="desc36">Created with Sketch.</desc>
  <defs
     id="defs38" />
  <g
     id="Octicons"
     style="fill:none;fill-rule:evenodd;stroke:none;stroke-width:1"
     transform="matrix(31.779661,0,0,31.779661,53.220339,3.5254248)">
    <g
       id="light-bulb"
       style="fill:#000000">
      <path
         d="M 6.5,0 C 3.48,0 1,2.19 1,5 c 0,0.92 0.55,2.25 1,3 1.34,2.25 1.78,2.78 2,4 l 0,1 5,0 0,-1 C 9.22,10.78 9.66,10.25 11,8 11.45,7.25 12,5.92 12,5 12,2.19 9.52,0 6.5,0 l 0,0 z m 3.64,7.48 C 9.89,7.92 9.67,8.28 9.47,8.59 8.61,10 8.22,10.65 8.02,11.82 8,11.87 8,11.93 8,11.99 l -3,0 C 5,11.93 5,11.86 4.98,11.82 4.78,10.65 4.39,9.99 3.53,8.59 3.33,8.28 3.11,7.92 2.86,7.48 2.44,6.78 2,5.65 2,5 2,2.8 4.02,1 6.5,1 7.72,1 8.86,1.42 9.72,2.19 10.55,2.94 11,3.94 11,5 11,5.66 10.56,6.78 10.14,7.48 l 0,0 z M 4,14 9,14 C 8.77,15.14 7.7,16 6.5,16 5.3,16 4.23,15.14 4,14 l 0,0 z"
         id="Shape"
         inkscape:connector-curvature="0" />
    </g>
  </g>
</svg>
