<?xml version="1.0" encoding="UTF-8" standalone="no"?>
<svg
   xmlns:dc="http://purl.org/dc/elements/1.1/"
   xmlns:cc="http://creativecommons.org/ns#"
   xmlns:rdf="http://www.w3.org/1999/02/22-rdf-syntax-ns#"
   xmlns:svg="http://www.w3.org/2000/svg"
   xmlns="http://www.w3.org/2000/svg"
   xmlns:sodipodi="http://sodipodi.sourceforge.net/DTD/sodipodi-0.dtd"
   xmlns:inkscape="http://www.inkscape.org/namespaces/inkscape"
   width="512"
   height="512"
   viewBox="0 0 512 512"
   version="1.1"
   id="svg2"
   inkscape:version="0.91 r13725"
   sodipodi:docname="fi-repo-forked.svg">
  <metadata
     id="metadata15">
    <rdf:RDF>
      <cc:Work
         rdf:about="">
        <dc:format>image/svg+xml</dc:format>
        <dc:type
           rdf:resource="http://purl.org/dc/dcmitype/StillImage" />
        <dc:title>repo-forked</dc:title>
      </cc:Work>
    </rdf:RDF>
  </metadata>
  <sodipodi:namedview
     pagecolor="#ffffff"
     bordercolor="#666666"
     borderopacity="1"
     objecttolerance="10"
     gridtolerance="10"
     guidetolerance="10"
     inkscape:pageopacity="0"
     inkscape:pageshadow="2"
     inkscape:window-width="1106"
     inkscape:window-height="803"
     id="namedview13"
     showgrid="false"
     inkscape:zoom="0.32593203"
     inkscape:cx="249.61201"
     inkscape:cy="317.70933"
     inkscape:window-x="0"
     inkscape:window-y="0"
     inkscape:window-maximized="0"
     inkscape:current-layer="svg2" />
  <!-- Generator: Sketch 3.8.3 (29802) - http://www.bohemiancoding.com/sketch -->
  <title
     id="title4">repo-forked</title>
  <desc
     id="desc6">Created with Sketch.</desc>
  <defs
     id="defs8" />
  <g
     id="Octicons"
     style="fill:none;fill-rule:evenodd;stroke:none;stroke-width:1"
     transform="matrix(32.799486,0,0,32.799486,95.656889,-5.8458422)">
    <g
       id="repo-forked"
       style="fill:#000000">
      <path
         d="M 8,1 C 6.89,1 6,1.89 6,3 6,3.73 6.41,4.38 7,4.72 L 7,6 5,8 3,6 3,4.72 C 3.59,4.38 4,3.74 4,3 4,1.89 3.11,1 2,1 0.89,1 0,1.89 0,3 0,3.73 0.41,4.38 1,4.72 l 0,1.78 3,3 0,1.78 C 3.41,11.62 3,12.26 3,13 3,14.11 3.89,15 5,15 6.11,15 7,14.11 7,13 7,12.27 6.59,11.62 6,11.28 L 6,9.5 9,6.5 9,4.72 C 9.59,4.38 10,3.74 10,3 10,1.89 9.11,1 8,1 L 8,1 Z M 2,4.2 C 1.34,4.2 0.8,3.65 0.8,3 0.8,2.35 1.35,1.8 2,1.8 2.65,1.8 3.2,2.35 3.2,3 3.2,3.65 2.65,4.2 2,4.2 l 0,0 z m 3,10 c -0.66,0 -1.2,-0.55 -1.2,-1.2 0,-0.65 0.55,-1.2 1.2,-1.2 0.65,0 1.2,0.55 1.2,1.2 0,0.65 -0.55,1.2 -1.2,1.2 l 0,0 z M 8,4.2 C 7.34,4.2 6.8,3.65 6.8,3 6.8,2.35 7.35,1.8 8,1.8 8.65,1.8 9.2,2.35 9.2,3 9.2,3.65 8.65,4.2 8,4.2 l 0,0 z"
         id="Shape"
         inkscape:connector-curvature="0" />
    </g>
  </g>
</svg>
