<?xml version="1.0" encoding="UTF-8" standalone="no"?>
<svg
   xmlns:dc="http://purl.org/dc/elements/1.1/"
   xmlns:cc="http://creativecommons.org/ns#"
   xmlns:rdf="http://www.w3.org/1999/02/22-rdf-syntax-ns#"
   xmlns:svg="http://www.w3.org/2000/svg"
   xmlns="http://www.w3.org/2000/svg"
   xmlns:sodipodi="http://sodipodi.sourceforge.net/DTD/sodipodi-0.dtd"
   xmlns:inkscape="http://www.inkscape.org/namespaces/inkscape"
   width="512"
   height="512"
   viewBox="0 0 512 512"
   version="1.1"
   id="svg2"
   inkscape:version="0.91 r13725"
   sodipodi:docname="fi-repo-force-push.svg">
  <metadata
     id="metadata15">
    <rdf:RDF>
      <cc:Work
         rdf:about="">
        <dc:format>image/svg+xml</dc:format>
        <dc:type
           rdf:resource="http://purl.org/dc/dcmitype/StillImage" />
        <dc:title>repo-force-push</dc:title>
      </cc:Work>
    </rdf:RDF>
  </metadata>
  <sodipodi:namedview
     pagecolor="#ffffff"
     bordercolor="#666666"
     borderopacity="1"
     objecttolerance="10"
     gridtolerance="10"
     guidetolerance="10"
     inkscape:pageopacity="0"
     inkscape:pageshadow="2"
     inkscape:window-width="1286"
     inkscape:window-height="844"
     id="namedview13"
     showgrid="false"
     inkscape:zoom="0.4609375"
     inkscape:cx="6"
     inkscape:cy="55.155594"
     inkscape:window-x="34"
     inkscape:window-y="42"
     inkscape:window-maximized="0"
     inkscape:current-layer="svg2" />
  <!-- Generator: Sketch 3.8.3 (29802) - http://www.bohemiancoding.com/sketch -->
  <title
     id="title4">repo-force-push</title>
  <desc
     id="desc6">Created with Sketch.</desc>
  <defs
     id="defs8" />
  <g
     id="Octicons"
     style="fill:none;fill-rule:evenodd;stroke:none;stroke-width:1"
     transform="matrix(29.214689,0,0,29.214689,84.033893,23.977406)">
    <g
       id="repo-force-push"
       style="fill:#000000">
      <path
         d="M 10,9 8,9 8,16 6,16 6,9 4,9 6.25,6 4,6 7,2 10,6 7.75,6 10,9 10,9 Z M 11,0 1,0 C 0.45,0 0,0.45 0,1 l 0,12 c 0,0.55 0.45,1 1,1 l 4,0 0,-1 -4,0 0,-2 4,0 0,-1 -3,0 0,-9 9,0 0,9 -2,0 0,1 2,0 0,2 -2,0 0,1 2,0 c 0.55,0 1,-0.45 1,-1 L 12,1 C 12,0.45 11.55,0 11,0 l 0,0 z"
         id="Shape"
         inkscape:connector-curvature="0" />
    </g>
  </g>
</svg>
