<?xml version="1.0" encoding="UTF-8" standalone="no"?>
<svg
   xmlns:dc="http://purl.org/dc/elements/1.1/"
   xmlns:cc="http://creativecommons.org/ns#"
   xmlns:rdf="http://www.w3.org/1999/02/22-rdf-syntax-ns#"
   xmlns:svg="http://www.w3.org/2000/svg"
   xmlns="http://www.w3.org/2000/svg"
   xmlns:sodipodi="http://sodipodi.sourceforge.net/DTD/sodipodi-0.dtd"
   xmlns:inkscape="http://www.inkscape.org/namespaces/inkscape"
   viewBox="0 0 512 512"
   id="svg2"
   version="1.1"
   inkscape:version="0.91 r13725"
   sodipodi:docname="javascript.svg"
   width="512"
   height="512">
  <metadata
     id="metadata12">
    <rdf:RDF>
      <cc:Work
         rdf:about="">
        <dc:format>image/svg+xml</dc:format>
        <dc:type
           rdf:resource="http://purl.org/dc/dcmitype/StillImage" />
        <dc:title></dc:title>
      </cc:Work>
    </rdf:RDF>
  </metadata>
  <defs
     id="defs10" />
  <sodipodi:namedview
     pagecolor="#ffffff"
     bordercolor="#666666"
     borderopacity="1"
     objecttolerance="10"
     gridtolerance="10"
     guidetolerance="10"
     inkscape:pageopacity="0"
     inkscape:pageshadow="2"
     inkscape:window-width="999"
     inkscape:window-height="668"
     id="namedview8"
     showgrid="false"
     inkscape:zoom="0.37460317"
     inkscape:cx="315"
     inkscape:cy="315"
     inkscape:window-x="0"
     inkscape:window-y="0"
     inkscape:window-maximized="0"
     inkscape:current-layer="svg2" />
  <rect
     width="501.86441"
     height="501.86441"
     id="rect4"
     style="fill:#000000"
     x="4.7542343"
     y="5.3813453" />
  <path
     d="m 341.87967,397.46491 c 10.10897,16.50576 23.26101,28.63814 46.52202,28.63814 19.54085,0 32.02374,-9.76644 32.02374,-23.26101 0,-16.17119 -12.82543,-21.89882 -34.3339,-31.30678 l -11.78984,-5.05847 c -34.03119,-14.49832 -56.63897,-32.66103 -56.63897,-71.05764 0,-35.36949 26.94931,-62.29491 69.0661,-62.29491 29.9844,0 51.54067,10.4356 67.07457,37.75932 l -36.72372,23.57966 c -8.0856,-14.49831 -16.80848,-20.21 -30.35085,-20.21 -13.81323,0 -22.56797,8.76272 -22.56797,20.21 0,14.1478 8.7627,19.87543 28.9966,28.63814 l 11.78984,5.0505 c 40.06949,17.18289 62.69321,34.70035 62.69321,74.08475 0,42.45933 -33.35406,65.72034 -78.14745,65.72034 -43.79762,0 -72.09322,-20.87119 -85.93831,-48.22678 z m -166.59509,4.08661 c 7.40847,13.14408 14.1478,24.25679 30.35085,24.25679 15.49406,0 25.26847,-6.06221 25.26847,-29.6339 l 0,-160.35763 47.15932,0 0,160.99492 c 0,48.8322 -28.63017,71.05762 -70.42034,71.05762 -37.75933,0 -59.62626,-19.54085 -70.74695,-43.0767 z"
     id="path6"
     style="fill:#ffffff"
     inkscape:connector-curvature="0" />
</svg>
