<?xml version="1.0" encoding="UTF-8" standalone="no"?>
<!-- Svg Vector Icons : http://www.onlinewebfonts.com/icon -->

<svg
   xmlns:dc="http://purl.org/dc/elements/1.1/"
   xmlns:cc="http://creativecommons.org/ns#"
   xmlns:rdf="http://www.w3.org/1999/02/22-rdf-syntax-ns#"
   xmlns:svg="http://www.w3.org/2000/svg"
   xmlns="http://www.w3.org/2000/svg"
   xmlns:sodipodi="http://sodipodi.sourceforge.net/DTD/sodipodi-0.dtd"
   xmlns:inkscape="http://www.inkscape.org/namespaces/inkscape"
   version="1.1"
   x="0px"
   y="0px"
   viewBox="0 0 512 512"
   enable-background="new 0 0 1000 1000"
   xml:space="preserve"
   id="svg2"
   inkscape:version="0.91 r13725"
   sodipodi:docname="php.svg"
   width="512"
   height="512"><defs
     id="defs16" /><sodipodi:namedview
     pagecolor="#ffffff"
     bordercolor="#666666"
     borderopacity="1"
     objecttolerance="10"
     gridtolerance="10"
     guidetolerance="10"
     inkscape:pageopacity="0"
     inkscape:pageshadow="2"
     inkscape:window-width="1155"
     inkscape:window-height="763"
     id="namedview14"
     showgrid="false"
     inkscape:zoom="0.236"
     inkscape:cx="500"
     inkscape:cy="500"
     inkscape:window-x="0"
     inkscape:window-y="0"
     inkscape:window-maximized="0"
     inkscape:current-layer="svg2" /><metadata
     id="metadata4"> Svg Vector Icons : http://www.onlinewebfonts.com/icon <rdf:RDF><cc:Work
     rdf:about=""><dc:format>image/svg+xml</dc:format><dc:type
       rdf:resource="http://purl.org/dc/dcmitype/StillImage" /><dc:title></dc:title></cc:Work></rdf:RDF></metadata><g
     id="g6"
     transform="matrix(0.5157385,0,0,0.5157385,-1.6319613,14.88135)"><path
       d="m 307.6,425.1 -51.6,0 -21.2,109.1 48.2,0 c 0,0 58.7,1.5 61.4,-70.7 2.8,-41.5 -36.8,-38.4 -36.8,-38.4 z"
       id="path8"
       inkscape:connector-curvature="0" /><path
       d="m 748.1,425.1 -51.6,0 -21.2,109.1 48.2,0 c 0,0 58.7,1.5 61.4,-70.7 2.9,-41.5 -36.8,-38.4 -36.8,-38.4 z"
       id="path10"
       inkscape:connector-curvature="0" /><path
       d="M 500,241.9 C 229.4,241.9 10,357.5 10,500 10,642.5 229.4,758.1 500,758.1 770.6,758.1 990,642.6 990,500 990,357.5 770.6,241.9 500,241.9 Z m -219.4,332.8 -52.2,-0.4 -14.7,68.6 -55.9,0 50.4,-258.1 c 0,0 71.6,0.9 118.6,0 47,-0.9 93.2,32.3 71.6,107.5 -26,89.8 -117.8,82.4 -117.8,82.4 z m 251.3,0 c 0,0 13.4,-60 19.3,-101.6 2.4,-17.1 13,-46.2 -15,-46.2 -23.4,-0.1 -58.4,-0.2 -58.4,-0.2 l -29.5,148.1 -55.3,0 51.6,-259.3 56.6,0 -14.2,69.3 58.4,0 c 0,0 77.4,-6.1 68.2,57.8 -9.2,63.9 -26.4,132.1 -26.4,132.1 l -55.3,0 z M 838.8,492.4 C 813,582.1 721.1,574.7 721.1,574.7 l -52.2,-0.4 -14.7,68.6 -55.9,0 50.4,-258.1 c 0,0 71.6,0.9 118.6,0 46.9,-0.9 93.1,32.3 71.5,107.6 z"
       id="path12"
       inkscape:connector-curvature="0" /></g></svg>