<?xml version="1.0" encoding="utf-8"?>
<!-- Generator: Adobe Illustrator 16.0.0, SVG Export Plug-In . SVG Version: 6.00 Build 0)  -->
<!DOCTYPE svg PUBLIC "-//W3C//DTD SVG 1.1//EN" "http://www.w3.org/Graphics/SVG/1.1/DTD/svg11.dtd">
<svg version="1.1"
	 id="svg2" xmlns:dc="http://purl.org/dc/elements/1.1/" xmlns:cc="http://creativecommons.org/ns#" xmlns:rdf="http://www.w3.org/1999/02/22-rdf-syntax-ns#" xmlns:svg="http://www.w3.org/2000/svg" xmlns:sodipodi="http://sodipodi.sourceforge.net/DTD/sodipodi-0.dtd" xmlns:inkscape="http://www.inkscape.org/namespaces/inkscape" sodipodi:version="0.32" sodipodi:docname="dokuwiki-logo.svg" inkscape:version="0.48.1 "
	 xmlns="http://www.w3.org/2000/svg" xmlns:xlink="http://www.w3.org/1999/xlink" x="0px" y="0px" width="128.171px"
	 height="128.039px" viewBox="0 0 128.171 128.039" enable-background="new 0 0 128.171 128.039" xml:space="preserve">
<title  id="title3181">DokuWiki Logo</title>
<sodipodi:namedview  borderlayer="false" showborder="true" fit-margin-left="0" fit-margin-top="0" showgrid="false" showguides="true" inkscape:cy="83.160427" inkscape:cx="35.144424" inkscape:zoom="2.03" borderopacity="1.0" bordercolor="#666666" pagecolor="#ffffff" id="base" inkscape:showpageshadow="false" inkscape:window-maximized="1" fit-margin-bottom="0" fit-margin-right="0" inkscape:guide-bbox="true" inkscape:window-y="-8" inkscape:window-x="-8" inkscape:window-height="716" inkscape:pageshadow="2" inkscape:current-layer="layer3" inkscape:pageopacity="0.0" inkscape:window-width="1366" inkscape:document-units="px">
	</sodipodi:namedview>
<g id="g1419" transform="matrix(0.99993322,0,0,0.9959778,0.01483419,0.8957919)">
	<g id="g2376">
		<path id="rect1425" inkscape:connector-curvature="0" sodipodi:nodetypes="ccccc" stroke="#000000" d="M21.084,22.774
			l79.841-19.517L127.54,104.98l-82.504,21.587L21.084,22.774L21.084,22.774z"/>
		
			<path id="rect1419" inkscape:connector-curvature="0" sodipodi:nodetypes="ccccc" fill="#FFFFFF" stroke="#FFFFFF" stroke-width="1.0042" d="
			M14.935,7.06l85.26-7.418l8.95,110.111l-84.37,5.35L14.935,7.06L14.935,7.06z"/>
	</g>
	<path id="text2382" inkscape:connector-curvature="0" fill="#FFFFFF" d="M31.099,62.822l-1.927-20.093l5.325-0.51l0.227,2.363
		l-2.47,0.236l1.473,15.366l2.47-0.237l0.227,2.363L31.099,62.822 M38.413,62.122l-1.927-20.094l5.325-0.511l0.227,2.363
		l-2.47,0.237l1.473,15.366l2.47-0.236l0.227,2.363L38.413,62.122 M43.821,41.326l5.785-0.555c1.304-0.125,2.309-0.121,3.012,0.013
		c0.946,0.183,1.779,0.588,2.502,1.217c0.722,0.629,1.303,1.43,1.741,2.402c0.438,0.965,0.727,2.182,0.867,3.65
		c0.125,1.289,0.07,2.418-0.16,3.382c-0.283,1.18-0.754,2.154-1.414,2.931c-0.497,0.587-1.198,1.077-2.103,1.465
		c-0.677,0.287-1.601,0.487-2.77,0.6l-5.956,0.571L43.821,41.326 M47.241,43.674l0.996,10.383L50.6,53.83
		c0.884-0.085,1.517-0.196,1.9-0.333c0.501-0.176,0.904-0.435,1.21-0.775c0.313-0.339,0.543-0.87,0.689-1.587
		c0.147-0.727,0.161-1.695,0.045-2.907c-0.116-1.212-0.312-2.132-0.588-2.76c-0.276-0.629-0.624-1.106-1.044-1.433
		c-0.42-0.327-0.932-0.526-1.536-0.597c-0.452-0.058-1.323-0.025-2.613,0.099L47.241,43.674 M63.385,55.27L58.14,39.952l3.24-0.311
		l3.396,10.541l1.833-11.042l3.764-0.361l3.799,10.687l1.357-11.18l3.186-0.306L76.41,54.02l-3.358,0.323l-4.246-11.42L66.819,54.94
		L63.385,55.27 M84.541,37.421l1.927,20.094l-5.326,0.511l-0.228-2.364l2.472-0.236L81.91,40.037l-2.469,0.236l-0.225-2.341
		L84.541,37.421 M91.855,36.719l1.927,20.092l-5.325,0.511l-0.227-2.363l2.469-0.236l-1.476-15.388l-2.471,0.237l-0.226-2.342
		L91.855,36.719"/>
</g>
</svg>
