<?xml version="1.0" encoding="utf-8"?>
<!-- Generator: Adobe Illustrator 16.0.0, SVG Export Plug-In . SVG Version: 6.00 Build 0)  -->
<!DOCTYPE svg PUBLIC "-//W3C//DTD SVG 1.1//EN" "http://www.w3.org/Graphics/SVG/1.1/DTD/svg11.dtd">
<svg version="1.1" id="Ebene_1" xmlns="http://www.w3.org/2000/svg" xmlns:xlink="http://www.w3.org/1999/xlink" x="0px" y="0px"
	 width="512px" height="512px" viewBox="0 0 512 512" enable-background="new 0 0 512 512" xml:space="preserve">
<path id="XMLID_107_" d="M255.585,152.24c-52.792,0-97.536,35.787-111.401,84.277c-12.053-25.721-38.172-43.739-68.255-43.739
	c-41.371,0-75.381,34.01-75.381,75.38c0,41.374,34.01,75.396,75.381,75.396c30.083,0,56.202-18.031,68.255-43.753
	c13.864,48.492,58.609,84.291,111.401,84.291c52.398,0,96.915-35.258,111.138-83.203c12.276,25.136,38.066,42.665,67.722,42.665
	c41.374,0,75.4-34.021,75.4-75.396c0-41.372-34.025-75.38-75.4-75.38c-29.654,0-55.445,17.516-67.722,42.651
	C352.501,187.485,307.984,152.24,255.585,152.24z M255.585,196.491c39.849,0,71.683,31.817,71.683,71.669
	c0,39.848-31.835,71.685-71.683,71.685c-39.853,0-71.672-31.837-71.672-71.685C183.914,228.308,215.732,196.491,255.585,196.491z
	 M75.929,237.028c17.459,0,31.145,13.674,31.145,31.132c0,17.459-13.685,31.145-31.145,31.145
	c-17.459,0-31.132-13.686-31.132-31.145C44.797,250.702,58.47,237.028,75.929,237.028z M434.446,237.028
	c17.464,0,31.149,13.674,31.149,31.132c0,17.459-13.686,31.145-31.149,31.145c-17.459,0-31.128-13.686-31.128-31.145
	C403.318,250.702,416.987,237.028,434.446,237.028z"/>
</svg>
