<?xml version="1.0" encoding="utf-8"?>
<!-- Generator: Adobe Illustrator 16.0.0, SVG Export Plug-In . SVG Version: 6.00 Build 0)  -->
<!DOCTYPE svg PUBLIC "-//W3C//DTD SVG 1.1//EN" "http://www.w3.org/Graphics/SVG/1.1/DTD/svg11.dtd">
<svg version="1.1" id="Ebene_1" xmlns="http://www.w3.org/2000/svg" xmlns:xlink="http://www.w3.org/1999/xlink" x="0px" y="0px"
	 width="512px" height="512px" viewBox="0 0 512 512" enable-background="new 0 0 512 512" xml:space="preserve">
<g>
	<g>
		<path d="M334.73,170.215c-1.338-0.892-2.906-1.125-4.583-1.125c-1.719,0-3.057,0.36-4.242,1.125H334.73L334.73,170.215z
			 M207.917,187.395c0,2.974,0.338,7.914,2.395,10.312c1.315,1.546,2.695,2.166,4.731,2.166c1.485,0,2.355-0.599,3.288-1.742
			c1.847-2.249,2.122-8.785,2.122-11.478c0-2.883-0.297-8.315-2.27-10.691c-1.017-1.23-1.952-1.95-3.564-1.95
			c-1.909,0-3.119,0.656-4.329,2.098C208.234,178.509,207.917,184.449,207.917,187.395z M61.822,170.002
			c0,6.238,0.658,16.504,4.963,21.532c3.308,3.861,7.572,5.178,12.601,5.178c4.901,0,9.417-1.149,12.664-4.965
			c4.263-5.028,4.793-17.289,4.793-23.463c0-6.089-0.72-15.167-4.985-20.004c-3.393-3.861-7.743-5.154-12.833-5.154
			c-4.943,0-8.951,1.443-12.218,5.197C62.48,153.349,61.822,163.744,61.822,170.002z M4.864,169.896
			c0-20.172,5.198-39.604,19.876-54.156c14.658-14.551,34.088-19.726,54.389-19.726c20.259,0,40.2,4.855,54.964,19.388
			c14.572,14.339,19.728,33.538,19.728,53.5c0,13.661-1.995,28.002-8.485,40.241c-5.792,10.948-14.255,19.516-25.117,25.562
			c-12.027,6.705-25.901,8.972-39.541,8.972c-13.299,0-27.238-1.803-39.328-7.658c-11.372-5.495-20.109-14.129-26.517-24.905
			C7.431,198.643,4.864,184.194,4.864,169.896z M326.923,204.688c1.062,0.421,2.228,0.613,3.565,0.613
			c1.295,0,2.525-0.189,3.69-0.613H326.923z M390.139,172.782v-40.114h50.656v3.754c0.553-0.318,1.103-0.634,1.674-0.913
			c6.918-3.606,14.66-4.943,22.4-4.943c11.159,0,21.492,3.246,29.274,11.393c8.358,8.74,10.672,21.128,10.672,32.775v66.801h-53.244
			V182.54c0-1.296-0.15-5.155-0.912-6.214c-0.488-0.552-1.549-0.574-2.207-0.574c-1.464,0-2.396,0.383-3.311,1.507
			c-1.674,2.059-1.927,9.165-1.927,11.626v52.65h-53.076V211.37l-1.271,2.203c-5.517,9.485-12.878,17.841-22.698,23.06
			c-10.714,5.687-24.461,7.023-36.426,7.023c-10.816,0-22.801-1.229-32.623-6.027c-8.89-4.346-15.825-11.16-20.979-19.535
			c-2.038-3.309-3.65-6.747-4.9-10.311c-1.994,7.7-5.431,14.935-10.988,21c-9.1,9.951-20.767,14.873-34.302,14.873
			c-6.089,0-12.09-0.976-17.754-3.228v35.684h-53.414V132.668h50.825v2.63c6.387-3.224,13.343-4.73,20.513-4.73
			c14.744,0,27.088,5.727,35.702,17.713c4.308,5.983,7.255,12.517,9.122,19.369c2.631-7.935,7.043-15.147,13.513-21.362
			c12.029-11.54,27.83-15.719,44.23-15.719c11.752,0,24.648,1.465,35.214,6.959c9.186,4.772,16.312,11.794,21.147,20.916
			C387.4,162.916,389.034,167.774,390.139,172.782L390.139,172.782z"/>
		<path fill="#FFFFFF" d="M399.089,141.577h32.73v14.829c4.881-6.087,9.802-10.417,14.806-13.005
			c5.009-2.607,11.077-3.925,18.244-3.925c9.714,0,17.288,2.865,22.783,8.635c5.472,5.728,8.208,14.616,8.208,26.644v57.891h-35.316
			V182.54c0-5.729-1.062-9.757-3.183-12.134c-2.122-2.376-5.091-3.565-8.912-3.565c-4.197,0-7.657,1.613-10.266,4.795
			c-2.61,3.224-3.946,8.951-3.946,17.246v43.74h-35.13v-91.045H399.089L399.089,141.577z M347.352,179.122
			c-0.68-6.786-2.526-11.622-5.497-14.549c-2.97-2.927-6.851-4.391-11.709-4.391c-5.603,0-10.055,2.228-13.428,6.64
			c-2.122,2.758-3.478,6.853-4.052,12.302h34.686V179.122z M383.031,195.796h-70.45c0.659,5.58,2.145,9.76,4.604,12.517
			c3.374,3.949,7.827,5.919,13.299,5.919c3.48,0,6.768-0.85,9.865-2.549c1.909-1.079,3.969-2.992,6.151-5.704l34.6,3.16
			c-5.305,9.122-11.691,15.699-19.155,19.643c-7.467,3.991-18.224,5.963-32.18,5.963c-12.157,0-21.681-1.696-28.659-5.112
			c-6.938-3.393-12.707-8.802-17.309-16.207c-4.562-7.424-6.854-16.146-6.854-26.135c0-14.234,4.583-25.796,13.768-34.577
			c9.143-8.804,21.831-13.216,37.995-13.216c13.131,0,23.462,1.993,31.054,5.939c7.595,3.945,13.385,9.653,17.374,17.163
			c3.967,7.487,5.94,17.246,5.94,29.273v3.924H383.031L383.031,195.796z M198.963,187.395c0,7.255,1.529,12.602,4.562,16.103
			c3.035,3.498,6.896,5.261,11.542,5.261c4.074,0,7.468-1.656,10.247-5.027c2.736-3.354,4.116-9.06,4.116-17.098
			c0-7.423-1.442-12.855-4.286-16.356c-2.884-3.48-6.363-5.198-10.5-5.198c-4.476,0-8.189,1.76-11.178,5.26
			C200.449,173.864,198.963,179.525,198.963,187.395L198.963,187.395z M163.729,267.181V141.577h32.902v13.428
			c4.54-5.665,8.719-9.504,12.516-11.497c5.091-2.693,10.776-4.03,16.97-4.03c12.239,0,21.679,4.645,28.406,13.979
			c6.681,9.333,10.033,20.872,10.033,34.6c0,15.166-3.648,26.749-10.948,34.725c-7.297,7.996-16.502,11.964-27.661,11.964
			c-5.411,0-10.33-0.912-14.766-2.715c-4.475-1.846-8.442-4.537-11.943-8.125v43.297h-35.51V267.181z M52.849,170.002
			c0,12.666,2.376,21.786,7.127,27.301c4.774,5.517,11.243,8.316,19.431,8.316c8.379,0,14.913-2.715,19.517-8.129
			c4.625-5.427,6.915-15.145,6.915-29.206c0-11.816-2.419-20.427-7.213-25.882c-4.815-5.474-11.328-8.188-19.559-8.188
			c-7.892,0-14.234,2.779-19.006,8.316C55.247,148.048,52.849,157.212,52.849,170.002L52.849,170.002z M13.838,169.916
			c0-20.492,5.749-36.464,17.246-47.855c11.498-11.436,27.514-17.141,48.049-17.141c21.043,0,37.249,5.623,48.642,16.822
			c11.391,11.223,17.077,26.963,17.077,47.158c0,14.678-2.46,26.706-7.445,36.083c-4.963,9.375-12.176,16.693-21.573,21.934
			c-9.42,5.239-21.129,7.829-35.171,7.829c-14.233,0-26.049-2.249-35.405-6.746c-9.333-4.539-16.928-11.666-22.719-21.425
			C16.744,196.816,13.838,184.596,13.838,169.916z"/>
	</g>
	<g>
		<path d="M364.397,306.466v-1.856h13.773v-14.136l56.669-28.813v42.949h20.545v46.365H434.84v24.891c0,0.428,0,1.019,0.025,1.632
			c2.287-0.341,4.959-1.177,6.771-1.743l11.191-3.559l4.914,45.847l-8.359,1.833c-9.173,2.021-18.595,3.265-28.02,3.265
			c-8.176,0-17.893-0.771-25.186-4.715c-6.41-3.442-11.12-8.763-14.021-15.402c-3.465-7.885-3.964-18.821-3.964-27.338v-24.71
			h-13.771v-10.147l-6.613,15.016l-8.699-3.622c-1.607-0.679-5.05-2.018-6.841-2.018c-1.701,0-2.559,0.454-3.486,1.859
			c-3.76,5.571-4.191,20.16-4.191,26.614v42.15h-56.854V312.719l-23.985,108.132H197.87l-16.399-58.412l-16.283,58.437h-55.812
			L75.173,267.71h59.457l8.065,42.402l11.823-42.402h53.843l11.979,42.738l8.178-42.738h59.231l-8.179,36.899h52.481v0.679
			c4.415-2.04,9.24-2.923,14.203-2.923C352.529,302.365,358.668,303.975,364.397,306.466L364.397,306.466z"/>
		<g>
			<path fill="#FFFFFF" d="M426.213,278.174v36.896h20.548v27.339h-20.548v34.414c0,4.118,0.409,6.858,1.201,8.217
				c1.224,2.062,3.396,3.103,6.478,3.103c2.762,0,6.636-0.791,11.619-2.377l2.764,25.754c-9.266,2.039-17.916,3.036-25.96,3.036
				c-9.329,0-16.218-1.178-20.633-3.559c-4.397-2.375-7.656-6.002-9.809-10.824c-2.104-4.851-3.17-12.708-3.17-23.535v-34.229
				h-13.771v-27.335h13.771v-17.828L426.213,278.174L426.213,278.174L426.213,278.174z"/>
			<path fill="#FFFFFF" d="M288.271,315.07h35.13v15.856c3.399-6.906,6.884-11.64,10.465-14.245
				c3.624-2.583,8.044-3.873,13.318-3.873c5.575,0,11.622,1.72,18.188,5.141l-11.62,26.431c-4.416-1.834-7.947-2.737-10.531-2.737
				c-4.891,0-8.742,2.036-11.436,6.046c-3.874,5.686-5.822,16.329-5.822,31.917v32.661h-37.714V315.07H288.271L288.271,315.07z"/>
			<polygon fill="#FFFFFF" points="88.037,278.174 127.634,278.174 141.86,353.013 162.72,278.174 201.996,278.174 223.017,353.148 
				237.355,278.174 276.765,278.174 247.002,412.31 206.097,412.31 182.403,327.871 158.87,412.31 118.031,412.31 88.037,278.174 
							"/>
		</g>
	</g>
</g>
</svg>
