<?xml version="1.0" encoding="utf-8"?>
<!-- Generator: Adobe Illustrator 16.0.0, SVG Export Plug-In . SVG Version: 6.00 Build 0)  -->
<!DOCTYPE svg PUBLIC "-//W3C//DTD SVG 1.1//EN" "http://www.w3.org/Graphics/SVG/1.1/DTD/svg11.dtd">
<svg version="1.1" id="Layer_1" xmlns="http://www.w3.org/2000/svg" xmlns:xlink="http://www.w3.org/1999/xlink" x="0px" y="0px"
	 width="100px" height="100px" viewBox="0 0 100 100" enable-background="new 0 0 100 100" xml:space="preserve">
<g>
	<path fill-rule="evenodd" clip-rule="evenodd" d="M38.097,37.72c1.385-1.724,3.286-1.786,5.384-1.289
		c0.501,0.119,1.333-0.107,1.664-0.481c3.003-3.413,6.652-5.88,10.788-7.692c0.352-0.155,0.686-0.532,0.855-0.888
		c1.005-2.1,1.959-4.225,2.982-6.458c-1.179-0.62-2.438-1.298-3.712-1.95c-3.15-1.614-4.185-3.91-2.841-6.343
		c1.534-2.779,4.941-3.694,7.725-2.069c0.514,0.3,1.009,0.631,1.507,0.945c1.006-0.701,1.996-1.391,3.28-2.285
		C64.77,9.106,64.09,9.104,63.45,8.943c-0.549-0.138-1.051-0.458-1.574-0.697c0.302-0.54,0.488-1.207,0.923-1.599
		c1.792-1.613,4.037-1.699,6.273-1.579c1.611,0.087,2.996,0.667,4.149,1.95c0.426,0.473,1.521,0.593,2.253,0.483
		c1.09-0.163,1.986-0.311,2.733,0.749c0.287,0.406,0.854,0.656,1.34,0.871c3.129,1.389,4.645,4.771,3.38,7.95
		c-0.556,1.397-1.354,2.722-2.199,3.973c-1.945,2.883-2.584,5.921-1.51,9.283c0.544,1.705,1.104,3.416,1.471,5.162
		c0.261,1.245,0.184,2.557,0.313,3.833c0.056,0.551,0.182,1.115,0.397,1.623c0.86,2.032,1.881,4.002,2.631,6.071
		c1.001,2.758,0.264,5.277-1.228,7.746c-0.811,1.341-1.415,2.929-1.643,4.474c-0.438,2.964-1.281,5.674-3.093,8.104
		c-0.695,0.933-0.994,2.151-1.577,3.182c-0.415,0.733-1.022,1.355-1.505,2.054c-0.231,0.337-0.402,0.724-0.549,1.108
		c-0.472,1.245-0.919,2.499-1.483,4.043c1.72,1.867,3.705,3.999,5.663,6.156c1.276,1.407,2.554,2.816,3.756,4.286
		c1.432,1.747,1.271,3.963-0.315,5.592c-2.848,2.925-6.047,3.015-8.749,0.079c-6.91-7.507-13.659-15.164-20.659-22.586
		c-7.077-7.502-14.311-14.857-21.601-22.153c-5.022-5.025-10.443-9.661-15.334-14.805c-3.701-3.892-4.685-8.878-3.489-14.125
		c0.809-3.548,3.333-4.325,5.959-1.818c5.066,4.833,9.996,9.808,14.999,14.709C34.732,34.583,36.331,36.05,38.097,37.72z
		 M64.608,68.179c0.663-1.013,1.38-1.798,1.734-2.722c0.578-1.507,0.771-3.166,1.395-4.648c1.046-2.49,2.292-4.898,3.476-7.329
		c0.648-1.331,0.513-2.216-1.125-2.604c-2.385-0.564-4.339-1.912-6.115-3.567c-0.938-0.874-1.965-1.654-3.225-2.704
		c-0.838,1.203-1.826,2.135-2.175,3.263c-0.354,1.149-0.078,2.494-0.078,3.753c-0.166,0.05-0.332,0.101-0.497,0.151
		c-0.436-0.486-0.872-0.973-1.334-1.488c-0.594,0.368-1.191,0.737-1.789,1.106c-0.12-0.081-0.24-0.164-0.361-0.245
		c0.742-3.162,1.483-6.322,2.226-9.483c-0.148-0.066-0.298-0.134-0.447-0.2c-1.466,0.823-2.948,1.512-3.836,3.201
		c-1.667,3.173-2.956,3.733-6.241,2.891C52.43,54.521,58.437,61.257,64.608,68.179z M72.949,12.484
		c-2.174-1.617-6.717-1.641-9.529,0.174c0.737,0.458,1.38,0.888,2.054,1.262c0.497,0.277,1.234,0.34,1.521,0.743
		c1,1.403,2.145,0.839,3.12,0.229C71.163,14.238,72.026,13.288,72.949,12.484z"/>
</g>
</svg>
